<svg xmlns="http://www.w3.org/2000/svg" xmlns:xlink="http://www.w3.org/1999/xlink" viewBox="0 0 400 70"><defs><style>.cls-1{fill:none;}.cls-2{fill:#61abeb;}.cls-3{fill:#4e4e50;}.cls-4{clip-path:url(#clip-path);}.cls-5{fill:url(#Gradiente_sem_nome_2);}.cls-6{isolation:isolate;}.cls-7{fill:#4b4b4d;}</style><clipPath id="clip-path" transform="translate(-1)"><path class="cls-1" d="M222.4,34.46l.9.9,3.58,3.58h0a2.53,2.53,0,0,0,3.58,0l-6.27-6.27Zm-6.65-4.81a2.48,2.48,0,0,0,2.53,2.54,3.16,3.16,0,0,0,.83-.14,2.92,2.92,0,0,1-.82-1.95h0v0h0V20.87a2.54,2.54,0,0,0-2.53-2.54Zm4-1.46a2.48,2.48,0,0,0,0,3.58L221.5,30,226,25.5l3.59-3.58a2.54,2.54,0,0,0,0-3.59Z"/></clipPath><linearGradient id="Gradiente_sem_nome_2" x1="-217.71" y1="290.43" x2="-217.09" y2="290.43" gradientTransform="matrix(0, 40.05, 40.05, 0, -11407.46, 8734.64)" gradientUnits="userSpaceOnUse"><stop offset="0" stop-color="#61abeb"/><stop offset="0.05" stop-color="#5da4e5"/><stop offset="0.32" stop-color="#4982c7"/><stop offset="0.57" stop-color="#3b69b2"/><stop offset="0.81" stop-color="#335aa5"/><stop offset="1" stop-color="#3055a1"/></linearGradient></defs><title>kroton</title><g id="BG"><rect class="cls-1" width="400" height="70"/></g><g id="KROTON"><path class="cls-2" d="M221.5,34.46l10.31-10.3a2.54,2.54,0,0,0-3.59,0l-8.51,8.51a2.48,2.48,0,0,0,0,3.58l4.93,4.93a2.53,2.53,0,0,0,0-3.58Z" transform="translate(-1)"/><path class="cls-3" d="M166.71,36.21a7.23,7.23,0,0,0-5.52,2.24,8,8,0,0,0-2.09,5.67,7.89,7.89,0,0,0,2.06,5.63,7.92,7.92,0,0,0,11.08,0,8,8,0,0,0,2.09-5.67,8,8,0,0,0-2.09-5.67,7.26,7.26,0,0,0-5.53-2.24m2.46,10.91a2.93,2.93,0,0,1-4.92,0,5.48,5.48,0,0,1-.72-3,5.67,5.67,0,0,1,.72-3,2.92,2.92,0,0,1,4.92,0,5.61,5.61,0,0,1,.72,3,5.54,5.54,0,0,1-.72,3M208.6,36.19c-4.57,0-7.16,3.21-7.16,7.74v7.73h1.2a3.42,3.42,0,0,0,3.23-3.58V43.93c0-2.33.5-3.77,2.73-3.77s2.73,1.44,2.73,3.77v4.15a3.41,3.41,0,0,0,3.23,3.58h1.19V43.93c0-4.53-2.59-7.74-7.15-7.74m-16.55,0a7.23,7.23,0,0,0-5.52,2.24,8,8,0,0,0-2.1,5.67,7.9,7.9,0,0,0,2.07,5.63,7.92,7.92,0,0,0,11.08,0,8,8,0,0,0,2.09-5.67,8,8,0,0,0-2.09-5.67,7.26,7.26,0,0,0-5.53-2.24m2.46,10.91a2.93,2.93,0,0,1-4.92,0,5.48,5.48,0,0,1-.72-3,5.67,5.67,0,0,1,.72-3,2.92,2.92,0,0,1,4.92,0,5.61,5.61,0,0,1,.72,3,5.54,5.54,0,0,1-.72,3M155.1,36.18c-3.28,0-4.61,1.6-4.61,4.65V51.66h1.19a3.39,3.39,0,0,0,3.2-3.58V41.5a1.42,1.42,0,0,1,1.44-1.42,4.37,4.37,0,0,1,1.63.34l1.59-3a8.5,8.5,0,0,0-4.44-1.29" transform="translate(-1)"/><path class="cls-3" d="M144.31,43.8l5-7.55h-3a4.19,4.19,0,0,0-3.63,1.82l-2.25,3.41V30.38h-1.19A3.39,3.39,0,0,0,136,34v17.7h1.2a3.39,3.39,0,0,0,3.19-3.58v-2l2.45,3.72a4.21,4.21,0,0,0,3.63,1.82h3Z" transform="translate(-1)"/><path class="cls-3" d="M181.81,48.16a1.42,1.42,0,0,1-1.44-1.42V40.52h1a3,3,0,0,0,2.82-3.14V37h-3.87V35.77a3.39,3.39,0,0,0-3.2-3.58H176v15c0,3.65,1.76,4.82,4.61,4.82a7,7,0,0,0,4-1.26l-1.69-2.9a1.88,1.88,0,0,1-1.08.29" transform="translate(-1)"/><g class="cls-4"><rect class="cls-5" x="210.28" y="16.26" width="25.74" height="25.74" transform="translate(43.76 166.32) rotate(-45)"/></g></g><g id="AVA"><g class="cls-6"><path class="cls-7" d="M50.35,52H42.92l-3-7.69H26.45L23.66,52H16.42L29.59,18.21h7.22ZM37.78,38.65,33.12,26.1,28.55,38.65Z" transform="translate(-1)"/><path class="cls-7" d="M59.09,52,47,18.21h7.41l8.56,25,8.28-25h7.24L66.38,52Z" transform="translate(-1)"/><path class="cls-7" d="M109,52h-7.43l-3-7.69H85.06L82.27,52H75L88.2,18.21h7.22ZM96.39,38.65,91.73,26.1,87.16,38.65Z" transform="translate(-1)"/></g><rect class="cls-7" x="121.58" y="18" width="1.07" height="34.03"/></g></svg>